<?xml version="1.0" encoding="UTF-8" standalone="no"?>
<!-- Created with Inkscape (http://www.inkscape.org/) -->

<svg
   xmlns:dc="http://purl.org/dc/elements/1.1/"
   xmlns:cc="http://creativecommons.org/ns#"
   xmlns:rdf="http://www.w3.org/1999/02/22-rdf-syntax-ns#"
   xmlns:svg="http://www.w3.org/2000/svg"
   xmlns="http://www.w3.org/2000/svg"
   xmlns:sodipodi="http://sodipodi.sourceforge.net/DTD/sodipodi-0.dtd"
   xmlns:inkscape="http://www.inkscape.org/namespaces/inkscape"
   width="210mm"
   height="297mm"
   viewBox="0 0 210 297"
   version="1.1"
   id="svg4747"
   inkscape:version="0.92.0 r15299"
   sodipodi:docname="logoMindTechVectorise_qualiteMoyenne.svg">
  <defs
     id="defs4741" />
  <sodipodi:namedview
     id="base"
     pagecolor="#ffffff"
     bordercolor="#666666"
     borderopacity="1.0"
     inkscape:pageopacity="0.0"
     inkscape:pageshadow="2"
     inkscape:zoom="0.7"
     inkscape:cx="564.83939"
     inkscape:cy="455.70212"
     inkscape:document-units="mm"
     inkscape:current-layer="layer1"
     showgrid="false"
     inkscape:window-width="1920"
     inkscape:window-height="1028"
     inkscape:window-x="-8"
     inkscape:window-y="-8"
     inkscape:window-maximized="1" />
  <metadata
     id="metadata4744">
    <rdf:RDF>
      <cc:Work
         rdf:about="">
        <dc:format>image/svg+xml</dc:format>
        <dc:type
           rdf:resource="http://purl.org/dc/dcmitype/StillImage" />
        <dc:title></dc:title>
      </cc:Work>
    </rdf:RDF>
  </metadata>
  <g
     inkscape:label="Calque 1"
     inkscape:groupmode="layer"
     id="layer1">
    <g
       id="g5305"
       style="fill:none;stroke:#000000;stroke-opacity:1">
      <path
         style="fill:none;stroke-width:0.26458332;stroke:#000000;stroke-opacity:1"
         d="m 224.21904,147.98326 c -7.59428,-1.03149 -12.83006,-6.87056 -13.98095,-15.59189 -1.09182,-8.27374 2.75575,-16.67183 9.007,-19.65957 6.3102,-3.01594 14.0521,-1.95728 18.55178,2.53684 1.72445,1.72232 3.1359,4.30287 3.33899,6.1047 0.15759,1.3982 -0.14835,1.58127 -2.15011,1.2866 -1.26039,-0.18554 -1.30685,-0.22499 -1.80318,-1.53165 -1.09678,-2.8873 -3.7532,-5.39553 -6.69391,-6.3205 -1.14033,-0.35867 -2.13564,-0.44329 -4.33054,-0.36816 -2.66602,0.0913 -2.97992,0.1618 -4.86497,1.09344 -4.73676,2.34104 -7.40498,7.42283 -7.39286,14.08018 0.0139,7.64176 3.48879,13.1119 9.41597,14.82261 2.41366,0.69664 6.20101,0.47013 8.15932,-0.48799 3.19982,-1.56553 5.2818,-4.27934 6.26803,-8.17028 l 0.48946,-1.93101 1.78874,-0.0791 1.78877,-0.0791 -0.17092,1.45428 c -0.2231,1.89817 -1.34345,4.97791 -2.41605,6.64142 -3.07406,4.76768 -8.6334,7.06454 -15.00457,6.19918 z m -60.67729,-0.84137 c -0.0683,-0.1819 -0.15388,-7.47447 -0.19013,-16.20572 l -0.0659,-15.87501 -6.08542,-0.13229 -6.08541,-0.13229 v -1.45521 -1.45521 l 14.10233,-0.0685 14.10234,-0.0685 -0.0794,1.52368 -0.0794,1.52368 -5.95312,0.13229 -5.95313,0.13229 -0.0682,15.85042 c -0.0481,11.17125 -0.1553,15.95531 -0.36313,16.20573 -0.38569,0.46473 -3.10835,0.48513 -3.28134,0.0246 z m 19.04887,0.003 c -0.0701,-0.18336 -0.0966,-8.1915 -0.0589,-17.79587 l 0.0685,-17.46251 12.20544,-0.0688 c 13.70368,-0.0772 12.56169,-0.25591 12.27541,1.92085 l -0.13918,1.05833 -10.31875,0.13229 -10.31875,0.13229 -0.071,6.15157 -0.071,6.15156 9.46373,0.004 c 5.20505,0.002 9.61982,0.10304 9.81061,0.22403 0.2296,0.14561 0.31906,0.65859 0.26458,1.51731 l -0.0823,1.29732 -9.65729,0.13229 -9.65729,0.13229 v 6.74688 6.74687 l 10.45104,0.13229 10.45104,0.1323 v 1.4552 1.45521 l -12.24426,0.0688 c -9.6542,0.0542 -12.27122,-0.002 -12.37166,-0.26459 z m 64.29273,-0.003 c -0.0695,-0.1819 -0.0955,-8.18885 -0.0578,-17.79322 l 0.0685,-17.46251 h 1.5875 1.5875 l 0.14267,7.54063 c 0.0784,4.14734 0.16774,7.57179 0.19843,7.60988 0.0307,0.0381 4.66945,0.0381 10.30838,0 l 10.25261,-0.0692 0.13229,-7.54063 0.13229,-7.54063 h 1.71979 1.71979 v 17.72709 17.72708 l -1.47904,0.0781 c -1.01442,0.0536 -1.57425,-0.0366 -1.78205,-0.28701 -0.20971,-0.25267 -0.32457,-2.88401 -0.37304,-8.54475 l -0.07,-8.17966 -10.12767,-0.0693 -10.12767,-0.0693 -0.22894,0.59847 c -0.12592,0.32915 -0.24628,4.09988 -0.2675,8.3794 -0.0212,4.27951 -0.10049,7.88115 -0.17618,8.00365 -0.22429,0.36289 -3.01636,0.26744 -3.15982,-0.10803 z M 3.2342398,146.33368 c -0.3505623,-0.11709 -0.6912927,-0.35522 -0.7571819,-0.52916 -0.1367922,-0.36113 -0.6023768,-2.24654 -3.7369458,-15.13294 -3.4497724,-14.18222 -3.6691119,-15.06357 -3.8138681,-15.32492 -0.4423437,-0.79864 -0.554998,2.45208 -0.5459757,15.75439 0.00818,12.07152 -0.055832,14.90153 -0.3411934,15.08244 -0.5862002,0.37163 -22.2803369,0.28861 -22.6556509,-0.0867 -0.485266,-0.48527 -0.458291,-68.709652 0.02743,-69.373915 0.32434,-0.443561 1.266902,-0.470779 15.790869,-0.455981 12.20156986,0.01244 15.5144706,0.087 15.7722092,0.355005 0.2948675,0.306613 0.7085197,1.711018 2.6326491,8.938223 0.3293136,1.236927 0.9180248,3.439584 1.3082508,4.894792 0.3902233,1.455208 1.1227064,4.193646 1.6277404,6.085417 0.505034,1.891771 1.2534265,4.689739 1.6630995,6.217709 0.40967,1.52797 1.229982,4.64193 1.822913,6.91991 1.479134,5.6827 2.216623,8.25319 2.443162,8.51559 0.20024,0.23193 0.96193,-1.91773 1.719276,-4.85217 0.73211,-2.83666 1.86118,-7.05974 2.900262,-10.84791 0.538864,-1.96454 1.506733,-5.53641 2.150816,-7.937504 0.644086,-2.401094 1.526815,-5.675313 1.961621,-7.276042 0.434808,-1.600729 1.206765,-4.51776 1.71546,-6.482292 1.278763,-4.93844 0.898774,-4.691798 7.024979,-4.55975 2.678896,0.05774 10.069949,0.184574 16.424563,0.281848 6.354617,0.09727 11.610866,0.236392 11.680558,0.309152 0.06969,0.07276 1.312095,2.096823 2.760892,4.497917 16.060827,26.617591 15.636777,25.929171 15.971594,25.929171 0.133099,0 0.234154,-6.56173 0.234154,-15.204238 0,-14.300483 0.02796,-15.219196 0.470415,-15.45599 0.639133,-0.342053 26.739293,-0.358484 33.793123,-0.02127 6.17639,0.295265 9.05477,0.700051 12.33903,1.735231 9.54213,3.007627 16.17824,11.012575 18.47578,22.286797 1.16559,5.71961 1.22424,15.21734 0.12728,20.60883 -2.68534,13.19819 -10.92841,21.61546 -23.70219,24.20305 -2.97489,0.60263 -3.20993,0.60905 -22.307302,0.60905 H 78.911321 l -2.803215,-4.63021 c -3.162954,-5.2244 -9.629309,-15.93986 -13.092578,-21.69583 -1.269582,-2.11006 -2.475119,-4.0108 -2.67897,-4.22389 -0.441264,-0.46125 -0.399881,-2.24929 -0.371118,16.03448 0.01942,12.35221 -0.02289,13.83957 -0.404683,14.22136 -0.377727,0.37772 -1.61881,0.42638 -10.875919,0.42638 -6.697155,0 -10.633313,-0.0984 -10.961309,-0.27389 -0.499272,-0.26721 -0.511773,-0.77889 -0.511773,-20.94619 0,-11.36976 -0.07342,-20.59887 -0.163153,-20.50913 -0.167714,0.16771 -0.823066,2.67936 -1.671833,6.40733 -0.265052,1.16417 -0.732155,3.06917 -1.038008,4.23333 -0.527349,2.00725 -2.13455,8.70526 -3.618778,15.08126 -0.372623,1.60072 -0.838163,3.50572 -1.034534,4.23333 -0.196371,0.7276 -0.901943,3.57779 -1.567937,6.33374 -0.665993,2.75596 -1.362786,5.16222 -1.548431,5.34725 -0.259879,0.25901 -2.909697,0.35406 -11.517495,0.41313 -6.1489801,0.0422 -11.4667848,-0.0191 -11.8173472,-0.13619 z M 111.20843,127.88865 c 7.27553,-0.91227 10.03139,-4.28853 10.65806,-13.05736 0.28181,-3.94328 -0.001,-8.91261 -0.65031,-11.41179 -1.7206,-6.626421 -5.78421,-8.978736 -15.21276,-8.80627 l -4.10104,0.07502 -0.0686,16.40416 c -0.0377,9.0223 -0.0117,16.553 0.0578,16.7349 0.15921,0.41645 6.16921,0.45602 9.31681,0.0613 z"
         id="path5319"
         inkscape:connector-curvature="0" />
    </g>
  </g>
</svg>
