G04 #@! TF.GenerationSoftware,KiCad,Pcbnew,5.1.5-52549c5~84~ubuntu19.10.1*
G04 #@! TF.CreationDate,2020-02-06T11:35:25+01:00*
G04 #@! TF.ProjectId,PCB_deco_plexi_LED_multicolores,5043425f-6465-4636-9f5f-706c6578695f,rev?*
G04 #@! TF.SameCoordinates,Original*
G04 #@! TF.FileFunction,Copper,L2,Bot*
G04 #@! TF.FilePolarity,Positive*
%FSLAX46Y46*%
G04 Gerber Fmt 4.6, Leading zero omitted, Abs format (unit mm)*
G04 Created by KiCad (PCBNEW 5.1.5-52549c5~84~ubuntu19.10.1) date 2020-02-06 11:35:25*
%MOMM*%
%LPD*%
G04 APERTURE LIST*
%ADD10R,1.800000X2.800000*%
%ADD11O,1.800000X2.800000*%
%ADD12R,2.700000X2.700000*%
%ADD13C,2.600000*%
%ADD14C,0.400000*%
%ADD15C,0.300000*%
G04 APERTURE END LIST*
D10*
X178000000Y-94000000D03*
D11*
X180540000Y-94000000D03*
D10*
X140000000Y-94000000D03*
D11*
X142540000Y-94000000D03*
X161540000Y-94000000D03*
D10*
X159000000Y-94000000D03*
D11*
X123540000Y-94000000D03*
D10*
X121000000Y-94000000D03*
D12*
X117000000Y-96000000D03*
X117000000Y-92000000D03*
D13*
X173500000Y-94000000D03*
X165880000Y-94000000D03*
X127880000Y-94000000D03*
X135500000Y-94000000D03*
D14*
X178000000Y-92700000D02*
X178000000Y-94000000D01*
X176700000Y-91400000D02*
X178000000Y-92700000D01*
X161540000Y-94000000D02*
X164140000Y-91400000D01*
X164140000Y-91400000D02*
X176700000Y-91400000D01*
X176300000Y-96800000D02*
X173500000Y-94000000D01*
X179700000Y-96800000D02*
X176300000Y-96800000D01*
X180540000Y-94000000D02*
X180540000Y-95960000D01*
X180540000Y-95960000D02*
X179700000Y-96800000D01*
X140000000Y-92700000D02*
X140000000Y-94000000D01*
X123540000Y-94000000D02*
X123540000Y-93460000D01*
X138700000Y-91400000D02*
X140000000Y-92700000D01*
X125600000Y-91400000D02*
X138700000Y-91400000D01*
X123540000Y-93460000D02*
X125600000Y-91400000D01*
X142540000Y-96460000D02*
X142540000Y-94000000D01*
X141800000Y-97200000D02*
X142540000Y-96460000D01*
X136400000Y-97200000D02*
X141800000Y-97200000D01*
X135500000Y-94000000D02*
X135500000Y-96300000D01*
X135500000Y-96300000D02*
X136400000Y-97200000D01*
X117000000Y-96000000D02*
X119000000Y-98000000D01*
X165880000Y-97120000D02*
X165880000Y-94000000D01*
X119000000Y-98000000D02*
X165000000Y-98000000D01*
X165000000Y-98000000D02*
X165880000Y-97120000D01*
X133400000Y-98000000D02*
X133200000Y-98000000D01*
X127880000Y-94000000D02*
X129680000Y-92200000D01*
X133400000Y-93000000D02*
X133400000Y-98000000D01*
X132600000Y-92200000D02*
X133400000Y-93000000D01*
X129680000Y-92200000D02*
X132600000Y-92200000D01*
D15*
G36*
X189023463Y-89881497D02*
G01*
X189046035Y-89888312D01*
X189066854Y-89899381D01*
X189085123Y-89914282D01*
X189100151Y-89932447D01*
X189111363Y-89953183D01*
X189118337Y-89975713D01*
X189125001Y-90039111D01*
X189125000Y-97957204D01*
X189118503Y-98023462D01*
X189111688Y-98046037D01*
X189100619Y-98066853D01*
X189085720Y-98085122D01*
X189067552Y-98100152D01*
X189046817Y-98111363D01*
X189024287Y-98118337D01*
X188960898Y-98125000D01*
X166359924Y-98125000D01*
X166585991Y-97898933D01*
X166626054Y-97866054D01*
X166691613Y-97786171D01*
X166757267Y-97706171D01*
X166854767Y-97523762D01*
X166863550Y-97494807D01*
X166914807Y-97325836D01*
X166930000Y-97171578D01*
X166930000Y-97171568D01*
X166935079Y-97120000D01*
X166930000Y-97068432D01*
X166930000Y-95884195D01*
X167250545Y-95670014D01*
X167550014Y-95370545D01*
X167785305Y-95018407D01*
X167947377Y-94627132D01*
X168030000Y-94211757D01*
X168030000Y-93788243D01*
X167947377Y-93372868D01*
X167785305Y-92981593D01*
X167550014Y-92629455D01*
X167370559Y-92450000D01*
X172009441Y-92450000D01*
X171829986Y-92629455D01*
X171594695Y-92981593D01*
X171432623Y-93372868D01*
X171350000Y-93788243D01*
X171350000Y-94211757D01*
X171432623Y-94627132D01*
X171594695Y-95018407D01*
X171829986Y-95370545D01*
X172129455Y-95670014D01*
X172481593Y-95905305D01*
X172872868Y-96067377D01*
X173288243Y-96150000D01*
X173711757Y-96150000D01*
X174089866Y-96074790D01*
X175521067Y-97505991D01*
X175553946Y-97546054D01*
X175594009Y-97578933D01*
X175608484Y-97590812D01*
X175713829Y-97677267D01*
X175896238Y-97774767D01*
X176094164Y-97834807D01*
X176248422Y-97850000D01*
X176248432Y-97850000D01*
X176300000Y-97855079D01*
X176351568Y-97850000D01*
X179648432Y-97850000D01*
X179700000Y-97855079D01*
X179751568Y-97850000D01*
X179751578Y-97850000D01*
X179905836Y-97834807D01*
X180103762Y-97774767D01*
X180286171Y-97677267D01*
X180446054Y-97546054D01*
X180478937Y-97505986D01*
X181245991Y-96738933D01*
X181286054Y-96706054D01*
X181417267Y-96546171D01*
X181514767Y-96363762D01*
X181574807Y-96165836D01*
X181590000Y-96011578D01*
X181590000Y-96011569D01*
X181595079Y-95960001D01*
X181590000Y-95908433D01*
X181590000Y-95902163D01*
X181783424Y-95743424D01*
X182002112Y-95476952D01*
X182164612Y-95172936D01*
X182264679Y-94843060D01*
X182290000Y-94585968D01*
X182290000Y-93414032D01*
X182264679Y-93156940D01*
X182164612Y-92827064D01*
X182002112Y-92523048D01*
X181783424Y-92256576D01*
X181516951Y-92037888D01*
X181212935Y-91875388D01*
X180883059Y-91775321D01*
X180540000Y-91741533D01*
X180196940Y-91775321D01*
X179867064Y-91875388D01*
X179563048Y-92037888D01*
X179548249Y-92050033D01*
X179503948Y-91996052D01*
X179374519Y-91889832D01*
X179226855Y-91810903D01*
X179066629Y-91762300D01*
X178900000Y-91745888D01*
X178530812Y-91745888D01*
X177478937Y-90694014D01*
X177446054Y-90653946D01*
X177286171Y-90522733D01*
X177103762Y-90425233D01*
X176905836Y-90365193D01*
X176751578Y-90350000D01*
X176751568Y-90350000D01*
X176700000Y-90344921D01*
X176648432Y-90350000D01*
X164191567Y-90350000D01*
X164139999Y-90344921D01*
X164088431Y-90350000D01*
X164088422Y-90350000D01*
X163934164Y-90365193D01*
X163736238Y-90425233D01*
X163553829Y-90522733D01*
X163553827Y-90522734D01*
X163553828Y-90522734D01*
X163434008Y-90621067D01*
X163434003Y-90621072D01*
X163393946Y-90653946D01*
X163361072Y-90694003D01*
X162187426Y-91867650D01*
X161883059Y-91775321D01*
X161540000Y-91741533D01*
X161196940Y-91775321D01*
X160867064Y-91875388D01*
X160563048Y-92037888D01*
X160399832Y-92171836D01*
X160367528Y-92132472D01*
X160267334Y-92050246D01*
X160153024Y-91989146D01*
X160028991Y-91951520D01*
X159900000Y-91938816D01*
X159268500Y-91942000D01*
X159104000Y-92106500D01*
X159104000Y-93896000D01*
X159124000Y-93896000D01*
X159124000Y-94104000D01*
X159104000Y-94104000D01*
X159104000Y-95893500D01*
X159268500Y-96058000D01*
X159900000Y-96061184D01*
X160028991Y-96048480D01*
X160153024Y-96010854D01*
X160267334Y-95949754D01*
X160367528Y-95867528D01*
X160399833Y-95828164D01*
X160563049Y-95962112D01*
X160867065Y-96124612D01*
X161196941Y-96224679D01*
X161540000Y-96258467D01*
X161883060Y-96224679D01*
X162212936Y-96124612D01*
X162516952Y-95962112D01*
X162783424Y-95743424D01*
X163002112Y-95476952D01*
X163164612Y-95172936D01*
X163264679Y-94843060D01*
X163290000Y-94585968D01*
X163290000Y-93734924D01*
X163926162Y-93098763D01*
X163812623Y-93372868D01*
X163730000Y-93788243D01*
X163730000Y-94211757D01*
X163812623Y-94627132D01*
X163974695Y-95018407D01*
X164209986Y-95370545D01*
X164509455Y-95670014D01*
X164830000Y-95884196D01*
X164830000Y-96685076D01*
X164565077Y-96950000D01*
X143468672Y-96950000D01*
X143514767Y-96863762D01*
X143534109Y-96800000D01*
X143574807Y-96665836D01*
X143590000Y-96511578D01*
X143590000Y-96511569D01*
X143595079Y-96460001D01*
X143590000Y-96408433D01*
X143590000Y-95902163D01*
X143783424Y-95743424D01*
X144002112Y-95476952D01*
X144043243Y-95400000D01*
X157438816Y-95400000D01*
X157451520Y-95528991D01*
X157489146Y-95653024D01*
X157550246Y-95767334D01*
X157632472Y-95867528D01*
X157732666Y-95949754D01*
X157846976Y-96010854D01*
X157971009Y-96048480D01*
X158100000Y-96061184D01*
X158731500Y-96058000D01*
X158896000Y-95893500D01*
X158896000Y-94104000D01*
X157606500Y-94104000D01*
X157442000Y-94268500D01*
X157438816Y-95400000D01*
X144043243Y-95400000D01*
X144164612Y-95172936D01*
X144264679Y-94843060D01*
X144290000Y-94585968D01*
X144290000Y-93414032D01*
X144264679Y-93156940D01*
X144164612Y-92827064D01*
X144043244Y-92600000D01*
X157438816Y-92600000D01*
X157442000Y-93731500D01*
X157606500Y-93896000D01*
X158896000Y-93896000D01*
X158896000Y-92106500D01*
X158731500Y-91942000D01*
X158100000Y-91938816D01*
X157971009Y-91951520D01*
X157846976Y-91989146D01*
X157732666Y-92050246D01*
X157632472Y-92132472D01*
X157550246Y-92232666D01*
X157489146Y-92346976D01*
X157451520Y-92471009D01*
X157438816Y-92600000D01*
X144043244Y-92600000D01*
X144002112Y-92523048D01*
X143783424Y-92256576D01*
X143516951Y-92037888D01*
X143212935Y-91875388D01*
X142883059Y-91775321D01*
X142540000Y-91741533D01*
X142196940Y-91775321D01*
X141867064Y-91875388D01*
X141563048Y-92037888D01*
X141548249Y-92050033D01*
X141503948Y-91996052D01*
X141374519Y-91889832D01*
X141226855Y-91810903D01*
X141066629Y-91762300D01*
X140900000Y-91745888D01*
X140530812Y-91745888D01*
X139478937Y-90694014D01*
X139446054Y-90653946D01*
X139286171Y-90522733D01*
X139103762Y-90425233D01*
X138905836Y-90365193D01*
X138751578Y-90350000D01*
X138751568Y-90350000D01*
X138700000Y-90344921D01*
X138648432Y-90350000D01*
X125651568Y-90350000D01*
X125600000Y-90344921D01*
X125548432Y-90350000D01*
X125548422Y-90350000D01*
X125394164Y-90365193D01*
X125196238Y-90425233D01*
X125013829Y-90522733D01*
X124853946Y-90653946D01*
X124821067Y-90694009D01*
X123752604Y-91762472D01*
X123540000Y-91741533D01*
X123196940Y-91775321D01*
X122867064Y-91875388D01*
X122563048Y-92037888D01*
X122399832Y-92171836D01*
X122367528Y-92132472D01*
X122267334Y-92050246D01*
X122153024Y-91989146D01*
X122028991Y-91951520D01*
X121900000Y-91938816D01*
X121268500Y-91942000D01*
X121104000Y-92106500D01*
X121104000Y-93896000D01*
X121124000Y-93896000D01*
X121124000Y-94104000D01*
X121104000Y-94104000D01*
X121104000Y-95893500D01*
X121268500Y-96058000D01*
X121900000Y-96061184D01*
X122028991Y-96048480D01*
X122153024Y-96010854D01*
X122267334Y-95949754D01*
X122367528Y-95867528D01*
X122399833Y-95828164D01*
X122563049Y-95962112D01*
X122867065Y-96124612D01*
X123196941Y-96224679D01*
X123540000Y-96258467D01*
X123883060Y-96224679D01*
X124212936Y-96124612D01*
X124516952Y-95962112D01*
X124783424Y-95743424D01*
X125002112Y-95476952D01*
X125164612Y-95172936D01*
X125264679Y-94843060D01*
X125290000Y-94585968D01*
X125290000Y-93414032D01*
X125270355Y-93214569D01*
X126034924Y-92450000D01*
X126389441Y-92450000D01*
X126209986Y-92629455D01*
X125974695Y-92981593D01*
X125812623Y-93372868D01*
X125730000Y-93788243D01*
X125730000Y-94211757D01*
X125812623Y-94627132D01*
X125974695Y-95018407D01*
X126209986Y-95370545D01*
X126509455Y-95670014D01*
X126861593Y-95905305D01*
X127252868Y-96067377D01*
X127668243Y-96150000D01*
X128091757Y-96150000D01*
X128507132Y-96067377D01*
X128898407Y-95905305D01*
X129250545Y-95670014D01*
X129550014Y-95370545D01*
X129785305Y-95018407D01*
X129947377Y-94627132D01*
X130030000Y-94211757D01*
X130030000Y-93788243D01*
X129954790Y-93410134D01*
X130114924Y-93250000D01*
X132165077Y-93250000D01*
X132350000Y-93434924D01*
X132350001Y-96950000D01*
X119434925Y-96950000D01*
X119204112Y-96719188D01*
X119204112Y-95400000D01*
X119438816Y-95400000D01*
X119451520Y-95528991D01*
X119489146Y-95653024D01*
X119550246Y-95767334D01*
X119632472Y-95867528D01*
X119732666Y-95949754D01*
X119846976Y-96010854D01*
X119971009Y-96048480D01*
X120100000Y-96061184D01*
X120731500Y-96058000D01*
X120896000Y-95893500D01*
X120896000Y-94104000D01*
X119606500Y-94104000D01*
X119442000Y-94268500D01*
X119438816Y-95400000D01*
X119204112Y-95400000D01*
X119204112Y-94650000D01*
X119187700Y-94483371D01*
X119139097Y-94323145D01*
X119060168Y-94175481D01*
X118953948Y-94046052D01*
X118824519Y-93939832D01*
X118730037Y-93889329D01*
X118817528Y-93817528D01*
X118899754Y-93717334D01*
X118960854Y-93603024D01*
X118998480Y-93478991D01*
X119011184Y-93350000D01*
X119008976Y-92600000D01*
X119438816Y-92600000D01*
X119442000Y-93731500D01*
X119606500Y-93896000D01*
X120896000Y-93896000D01*
X120896000Y-92106500D01*
X120731500Y-91942000D01*
X120100000Y-91938816D01*
X119971009Y-91951520D01*
X119846976Y-91989146D01*
X119732666Y-92050246D01*
X119632472Y-92132472D01*
X119550246Y-92232666D01*
X119489146Y-92346976D01*
X119451520Y-92471009D01*
X119438816Y-92600000D01*
X119008976Y-92600000D01*
X119008000Y-92268500D01*
X118843500Y-92104000D01*
X117104000Y-92104000D01*
X117104000Y-92124000D01*
X116896000Y-92124000D01*
X116896000Y-92104000D01*
X115156500Y-92104000D01*
X114992000Y-92268500D01*
X114988816Y-93350000D01*
X115001520Y-93478991D01*
X115039146Y-93603024D01*
X115100246Y-93717334D01*
X115182472Y-93817528D01*
X115269963Y-93889329D01*
X115175481Y-93939832D01*
X115046052Y-94046052D01*
X114939832Y-94175481D01*
X114860903Y-94323145D01*
X114812300Y-94483371D01*
X114795888Y-94650000D01*
X114795888Y-95324958D01*
X114791872Y-95304768D01*
X114612201Y-94871005D01*
X114351360Y-94480628D01*
X114019372Y-94148640D01*
X113796916Y-94000000D01*
X114019372Y-93851360D01*
X114351360Y-93519372D01*
X114612201Y-93128995D01*
X114791872Y-92695232D01*
X114883467Y-92234751D01*
X114883467Y-91765249D01*
X114791872Y-91304768D01*
X114612201Y-90871005D01*
X114464531Y-90650000D01*
X114988816Y-90650000D01*
X114992000Y-91731500D01*
X115156500Y-91896000D01*
X116896000Y-91896000D01*
X116896000Y-90156500D01*
X117104000Y-90156500D01*
X117104000Y-91896000D01*
X118843500Y-91896000D01*
X119008000Y-91731500D01*
X119011184Y-90650000D01*
X118998480Y-90521009D01*
X118960854Y-90396976D01*
X118899754Y-90282666D01*
X118817528Y-90182472D01*
X118717334Y-90100246D01*
X118603024Y-90039146D01*
X118478991Y-90001520D01*
X118350000Y-89988816D01*
X117268500Y-89992000D01*
X117104000Y-90156500D01*
X116896000Y-90156500D01*
X116731500Y-89992000D01*
X115650000Y-89988816D01*
X115521009Y-90001520D01*
X115396976Y-90039146D01*
X115282666Y-90100246D01*
X115182472Y-90182472D01*
X115100246Y-90282666D01*
X115039146Y-90396976D01*
X115001520Y-90521009D01*
X114988816Y-90650000D01*
X114464531Y-90650000D01*
X114351360Y-90480628D01*
X114019372Y-90148640D01*
X113628995Y-89887799D01*
X113598096Y-89875000D01*
X188957204Y-89875000D01*
X189023463Y-89881497D01*
G37*
X189023463Y-89881497D02*
X189046035Y-89888312D01*
X189066854Y-89899381D01*
X189085123Y-89914282D01*
X189100151Y-89932447D01*
X189111363Y-89953183D01*
X189118337Y-89975713D01*
X189125001Y-90039111D01*
X189125000Y-97957204D01*
X189118503Y-98023462D01*
X189111688Y-98046037D01*
X189100619Y-98066853D01*
X189085720Y-98085122D01*
X189067552Y-98100152D01*
X189046817Y-98111363D01*
X189024287Y-98118337D01*
X188960898Y-98125000D01*
X166359924Y-98125000D01*
X166585991Y-97898933D01*
X166626054Y-97866054D01*
X166691613Y-97786171D01*
X166757267Y-97706171D01*
X166854767Y-97523762D01*
X166863550Y-97494807D01*
X166914807Y-97325836D01*
X166930000Y-97171578D01*
X166930000Y-97171568D01*
X166935079Y-97120000D01*
X166930000Y-97068432D01*
X166930000Y-95884195D01*
X167250545Y-95670014D01*
X167550014Y-95370545D01*
X167785305Y-95018407D01*
X167947377Y-94627132D01*
X168030000Y-94211757D01*
X168030000Y-93788243D01*
X167947377Y-93372868D01*
X167785305Y-92981593D01*
X167550014Y-92629455D01*
X167370559Y-92450000D01*
X172009441Y-92450000D01*
X171829986Y-92629455D01*
X171594695Y-92981593D01*
X171432623Y-93372868D01*
X171350000Y-93788243D01*
X171350000Y-94211757D01*
X171432623Y-94627132D01*
X171594695Y-95018407D01*
X171829986Y-95370545D01*
X172129455Y-95670014D01*
X172481593Y-95905305D01*
X172872868Y-96067377D01*
X173288243Y-96150000D01*
X173711757Y-96150000D01*
X174089866Y-96074790D01*
X175521067Y-97505991D01*
X175553946Y-97546054D01*
X175594009Y-97578933D01*
X175608484Y-97590812D01*
X175713829Y-97677267D01*
X175896238Y-97774767D01*
X176094164Y-97834807D01*
X176248422Y-97850000D01*
X176248432Y-97850000D01*
X176300000Y-97855079D01*
X176351568Y-97850000D01*
X179648432Y-97850000D01*
X179700000Y-97855079D01*
X179751568Y-97850000D01*
X179751578Y-97850000D01*
X179905836Y-97834807D01*
X180103762Y-97774767D01*
X180286171Y-97677267D01*
X180446054Y-97546054D01*
X180478937Y-97505986D01*
X181245991Y-96738933D01*
X181286054Y-96706054D01*
X181417267Y-96546171D01*
X181514767Y-96363762D01*
X181574807Y-96165836D01*
X181590000Y-96011578D01*
X181590000Y-96011569D01*
X181595079Y-95960001D01*
X181590000Y-95908433D01*
X181590000Y-95902163D01*
X181783424Y-95743424D01*
X182002112Y-95476952D01*
X182164612Y-95172936D01*
X182264679Y-94843060D01*
X182290000Y-94585968D01*
X182290000Y-93414032D01*
X182264679Y-93156940D01*
X182164612Y-92827064D01*
X182002112Y-92523048D01*
X181783424Y-92256576D01*
X181516951Y-92037888D01*
X181212935Y-91875388D01*
X180883059Y-91775321D01*
X180540000Y-91741533D01*
X180196940Y-91775321D01*
X179867064Y-91875388D01*
X179563048Y-92037888D01*
X179548249Y-92050033D01*
X179503948Y-91996052D01*
X179374519Y-91889832D01*
X179226855Y-91810903D01*
X179066629Y-91762300D01*
X178900000Y-91745888D01*
X178530812Y-91745888D01*
X177478937Y-90694014D01*
X177446054Y-90653946D01*
X177286171Y-90522733D01*
X177103762Y-90425233D01*
X176905836Y-90365193D01*
X176751578Y-90350000D01*
X176751568Y-90350000D01*
X176700000Y-90344921D01*
X176648432Y-90350000D01*
X164191567Y-90350000D01*
X164139999Y-90344921D01*
X164088431Y-90350000D01*
X164088422Y-90350000D01*
X163934164Y-90365193D01*
X163736238Y-90425233D01*
X163553829Y-90522733D01*
X163553827Y-90522734D01*
X163553828Y-90522734D01*
X163434008Y-90621067D01*
X163434003Y-90621072D01*
X163393946Y-90653946D01*
X163361072Y-90694003D01*
X162187426Y-91867650D01*
X161883059Y-91775321D01*
X161540000Y-91741533D01*
X161196940Y-91775321D01*
X160867064Y-91875388D01*
X160563048Y-92037888D01*
X160399832Y-92171836D01*
X160367528Y-92132472D01*
X160267334Y-92050246D01*
X160153024Y-91989146D01*
X160028991Y-91951520D01*
X159900000Y-91938816D01*
X159268500Y-91942000D01*
X159104000Y-92106500D01*
X159104000Y-93896000D01*
X159124000Y-93896000D01*
X159124000Y-94104000D01*
X159104000Y-94104000D01*
X159104000Y-95893500D01*
X159268500Y-96058000D01*
X159900000Y-96061184D01*
X160028991Y-96048480D01*
X160153024Y-96010854D01*
X160267334Y-95949754D01*
X160367528Y-95867528D01*
X160399833Y-95828164D01*
X160563049Y-95962112D01*
X160867065Y-96124612D01*
X161196941Y-96224679D01*
X161540000Y-96258467D01*
X161883060Y-96224679D01*
X162212936Y-96124612D01*
X162516952Y-95962112D01*
X162783424Y-95743424D01*
X163002112Y-95476952D01*
X163164612Y-95172936D01*
X163264679Y-94843060D01*
X163290000Y-94585968D01*
X163290000Y-93734924D01*
X163926162Y-93098763D01*
X163812623Y-93372868D01*
X163730000Y-93788243D01*
X163730000Y-94211757D01*
X163812623Y-94627132D01*
X163974695Y-95018407D01*
X164209986Y-95370545D01*
X164509455Y-95670014D01*
X164830000Y-95884196D01*
X164830000Y-96685076D01*
X164565077Y-96950000D01*
X143468672Y-96950000D01*
X143514767Y-96863762D01*
X143534109Y-96800000D01*
X143574807Y-96665836D01*
X143590000Y-96511578D01*
X143590000Y-96511569D01*
X143595079Y-96460001D01*
X143590000Y-96408433D01*
X143590000Y-95902163D01*
X143783424Y-95743424D01*
X144002112Y-95476952D01*
X144043243Y-95400000D01*
X157438816Y-95400000D01*
X157451520Y-95528991D01*
X157489146Y-95653024D01*
X157550246Y-95767334D01*
X157632472Y-95867528D01*
X157732666Y-95949754D01*
X157846976Y-96010854D01*
X157971009Y-96048480D01*
X158100000Y-96061184D01*
X158731500Y-96058000D01*
X158896000Y-95893500D01*
X158896000Y-94104000D01*
X157606500Y-94104000D01*
X157442000Y-94268500D01*
X157438816Y-95400000D01*
X144043243Y-95400000D01*
X144164612Y-95172936D01*
X144264679Y-94843060D01*
X144290000Y-94585968D01*
X144290000Y-93414032D01*
X144264679Y-93156940D01*
X144164612Y-92827064D01*
X144043244Y-92600000D01*
X157438816Y-92600000D01*
X157442000Y-93731500D01*
X157606500Y-93896000D01*
X158896000Y-93896000D01*
X158896000Y-92106500D01*
X158731500Y-91942000D01*
X158100000Y-91938816D01*
X157971009Y-91951520D01*
X157846976Y-91989146D01*
X157732666Y-92050246D01*
X157632472Y-92132472D01*
X157550246Y-92232666D01*
X157489146Y-92346976D01*
X157451520Y-92471009D01*
X157438816Y-92600000D01*
X144043244Y-92600000D01*
X144002112Y-92523048D01*
X143783424Y-92256576D01*
X143516951Y-92037888D01*
X143212935Y-91875388D01*
X142883059Y-91775321D01*
X142540000Y-91741533D01*
X142196940Y-91775321D01*
X141867064Y-91875388D01*
X141563048Y-92037888D01*
X141548249Y-92050033D01*
X141503948Y-91996052D01*
X141374519Y-91889832D01*
X141226855Y-91810903D01*
X141066629Y-91762300D01*
X140900000Y-91745888D01*
X140530812Y-91745888D01*
X139478937Y-90694014D01*
X139446054Y-90653946D01*
X139286171Y-90522733D01*
X139103762Y-90425233D01*
X138905836Y-90365193D01*
X138751578Y-90350000D01*
X138751568Y-90350000D01*
X138700000Y-90344921D01*
X138648432Y-90350000D01*
X125651568Y-90350000D01*
X125600000Y-90344921D01*
X125548432Y-90350000D01*
X125548422Y-90350000D01*
X125394164Y-90365193D01*
X125196238Y-90425233D01*
X125013829Y-90522733D01*
X124853946Y-90653946D01*
X124821067Y-90694009D01*
X123752604Y-91762472D01*
X123540000Y-91741533D01*
X123196940Y-91775321D01*
X122867064Y-91875388D01*
X122563048Y-92037888D01*
X122399832Y-92171836D01*
X122367528Y-92132472D01*
X122267334Y-92050246D01*
X122153024Y-91989146D01*
X122028991Y-91951520D01*
X121900000Y-91938816D01*
X121268500Y-91942000D01*
X121104000Y-92106500D01*
X121104000Y-93896000D01*
X121124000Y-93896000D01*
X121124000Y-94104000D01*
X121104000Y-94104000D01*
X121104000Y-95893500D01*
X121268500Y-96058000D01*
X121900000Y-96061184D01*
X122028991Y-96048480D01*
X122153024Y-96010854D01*
X122267334Y-95949754D01*
X122367528Y-95867528D01*
X122399833Y-95828164D01*
X122563049Y-95962112D01*
X122867065Y-96124612D01*
X123196941Y-96224679D01*
X123540000Y-96258467D01*
X123883060Y-96224679D01*
X124212936Y-96124612D01*
X124516952Y-95962112D01*
X124783424Y-95743424D01*
X125002112Y-95476952D01*
X125164612Y-95172936D01*
X125264679Y-94843060D01*
X125290000Y-94585968D01*
X125290000Y-93414032D01*
X125270355Y-93214569D01*
X126034924Y-92450000D01*
X126389441Y-92450000D01*
X126209986Y-92629455D01*
X125974695Y-92981593D01*
X125812623Y-93372868D01*
X125730000Y-93788243D01*
X125730000Y-94211757D01*
X125812623Y-94627132D01*
X125974695Y-95018407D01*
X126209986Y-95370545D01*
X126509455Y-95670014D01*
X126861593Y-95905305D01*
X127252868Y-96067377D01*
X127668243Y-96150000D01*
X128091757Y-96150000D01*
X128507132Y-96067377D01*
X128898407Y-95905305D01*
X129250545Y-95670014D01*
X129550014Y-95370545D01*
X129785305Y-95018407D01*
X129947377Y-94627132D01*
X130030000Y-94211757D01*
X130030000Y-93788243D01*
X129954790Y-93410134D01*
X130114924Y-93250000D01*
X132165077Y-93250000D01*
X132350000Y-93434924D01*
X132350001Y-96950000D01*
X119434925Y-96950000D01*
X119204112Y-96719188D01*
X119204112Y-95400000D01*
X119438816Y-95400000D01*
X119451520Y-95528991D01*
X119489146Y-95653024D01*
X119550246Y-95767334D01*
X119632472Y-95867528D01*
X119732666Y-95949754D01*
X119846976Y-96010854D01*
X119971009Y-96048480D01*
X120100000Y-96061184D01*
X120731500Y-96058000D01*
X120896000Y-95893500D01*
X120896000Y-94104000D01*
X119606500Y-94104000D01*
X119442000Y-94268500D01*
X119438816Y-95400000D01*
X119204112Y-95400000D01*
X119204112Y-94650000D01*
X119187700Y-94483371D01*
X119139097Y-94323145D01*
X119060168Y-94175481D01*
X118953948Y-94046052D01*
X118824519Y-93939832D01*
X118730037Y-93889329D01*
X118817528Y-93817528D01*
X118899754Y-93717334D01*
X118960854Y-93603024D01*
X118998480Y-93478991D01*
X119011184Y-93350000D01*
X119008976Y-92600000D01*
X119438816Y-92600000D01*
X119442000Y-93731500D01*
X119606500Y-93896000D01*
X120896000Y-93896000D01*
X120896000Y-92106500D01*
X120731500Y-91942000D01*
X120100000Y-91938816D01*
X119971009Y-91951520D01*
X119846976Y-91989146D01*
X119732666Y-92050246D01*
X119632472Y-92132472D01*
X119550246Y-92232666D01*
X119489146Y-92346976D01*
X119451520Y-92471009D01*
X119438816Y-92600000D01*
X119008976Y-92600000D01*
X119008000Y-92268500D01*
X118843500Y-92104000D01*
X117104000Y-92104000D01*
X117104000Y-92124000D01*
X116896000Y-92124000D01*
X116896000Y-92104000D01*
X115156500Y-92104000D01*
X114992000Y-92268500D01*
X114988816Y-93350000D01*
X115001520Y-93478991D01*
X115039146Y-93603024D01*
X115100246Y-93717334D01*
X115182472Y-93817528D01*
X115269963Y-93889329D01*
X115175481Y-93939832D01*
X115046052Y-94046052D01*
X114939832Y-94175481D01*
X114860903Y-94323145D01*
X114812300Y-94483371D01*
X114795888Y-94650000D01*
X114795888Y-95324958D01*
X114791872Y-95304768D01*
X114612201Y-94871005D01*
X114351360Y-94480628D01*
X114019372Y-94148640D01*
X113796916Y-94000000D01*
X114019372Y-93851360D01*
X114351360Y-93519372D01*
X114612201Y-93128995D01*
X114791872Y-92695232D01*
X114883467Y-92234751D01*
X114883467Y-91765249D01*
X114791872Y-91304768D01*
X114612201Y-90871005D01*
X114464531Y-90650000D01*
X114988816Y-90650000D01*
X114992000Y-91731500D01*
X115156500Y-91896000D01*
X116896000Y-91896000D01*
X116896000Y-90156500D01*
X117104000Y-90156500D01*
X117104000Y-91896000D01*
X118843500Y-91896000D01*
X119008000Y-91731500D01*
X119011184Y-90650000D01*
X118998480Y-90521009D01*
X118960854Y-90396976D01*
X118899754Y-90282666D01*
X118817528Y-90182472D01*
X118717334Y-90100246D01*
X118603024Y-90039146D01*
X118478991Y-90001520D01*
X118350000Y-89988816D01*
X117268500Y-89992000D01*
X117104000Y-90156500D01*
X116896000Y-90156500D01*
X116731500Y-89992000D01*
X115650000Y-89988816D01*
X115521009Y-90001520D01*
X115396976Y-90039146D01*
X115282666Y-90100246D01*
X115182472Y-90182472D01*
X115100246Y-90282666D01*
X115039146Y-90396976D01*
X115001520Y-90521009D01*
X114988816Y-90650000D01*
X114464531Y-90650000D01*
X114351360Y-90480628D01*
X114019372Y-90148640D01*
X113628995Y-89887799D01*
X113598096Y-89875000D01*
X188957204Y-89875000D01*
X189023463Y-89881497D01*
M02*
